<?xml version="1.0" encoding="utf-8"?>
<!-- Generator: Adobe Illustrator 27.5.0, SVG Export Plug-In . SVG Version: 6.00 Build 0)  -->
<svg version="1.1" xmlns="http://www.w3.org/2000/svg" xmlns:xlink="http://www.w3.org/1999/xlink" x="0px" y="0px"
	 viewBox="0 0 500 500" style="enable-background:new 0 0 500 500;" xml:space="preserve">
<g id="BACKGROUND">
	<g>
		<g>
			<g>
				<rect style="fill:#F2F2FC;" width="500" height="500"/>
			</g>
		</g>
	</g>
</g>
<g id="OBJECTS">
	<g>
		<g>
			<g>
				<g>
					<g>
						<rect x="189.558" y="364.743" style="fill:#342F66;" width="130.884" height="90.528"/>
					</g>
					<g>
						<path style="fill:#54548E;" d="M411.645,412.741H98.355c-4.305,0-7.794-3.49-7.794-7.794V222.954
							c0-4.305,3.49-7.795,7.794-7.795h313.29c4.305,0,7.794,3.49,7.794,7.795v181.993
							C419.439,409.252,415.95,412.741,411.645,412.741z"/>
					</g>
					<g>
						<rect x="180.287" y="450.112" style="fill:#54548E;" width="149.425" height="11.41"/>
					</g>
				</g>
				<g>
					<path style="fill:#D0D0F4;" d="M399.149,402.42H110.85c-3.961,0-7.173-3.211-7.173-7.173V233.882
						c0-3.961,3.211-7.173,7.173-7.173h288.299c3.961,0,7.173,3.211,7.173,7.173v161.366
						C406.322,399.209,403.111,402.42,399.149,402.42z"/>
				</g>
			</g>
		</g>
	</g>
	<g>
		<g>
			
				<polygon style="fill:none;stroke:#342F66;stroke-width:1.5406;stroke-linecap:round;stroke-linejoin:round;stroke-miterlimit:10;stroke-dasharray:2.3109,6.9328;" points="
				129.885,80.457 372.343,80.457 372.343,156.928 422.399,156.928 422.399,302.764 372.343,302.764 372.343,414.761 
				129.885,414.761 			"/>
		</g>
		
			<rect x="149.869" y="98.802" style="fill:#FFFFFF;stroke:#342F66;stroke-width:1.5252;stroke-linecap:round;stroke-linejoin:round;stroke-miterlimit:10;" width="205.461" height="299.097"/>
		<g>
			<g>
				<rect x="164.289" y="111.52" style="fill:#D0D0F4;" width="174.856" height="29.583"/>
			</g>
			<g>
				<rect x="164.289" y="320.628" style="fill:#D0D0F4;" width="174.856" height="60.814"/>
			</g>
			<g>
				<rect x="164.289" y="153.335" style="fill:#D0D0F4;" width="42.952" height="155.061"/>
			</g>
			<g>
				<rect x="221.854" y="153.335" style="fill:#D0D0F4;" width="117.291" height="71.414"/>
			</g>
			<g>
				<rect x="221.854" y="236.982" style="fill:#D0D0F4;" width="117.291" height="71.414"/>
			</g>
		</g>
		<g>
			<g>
				<path style="fill:#342F66;" d="M174.063,246.839H85.708c-4.838,0-8.76-3.922-8.76-8.76v-50.441c0-4.838,3.922-8.76,8.76-8.76
					h88.355c4.838,0,8.76,3.922,8.76,8.76v50.441C182.823,242.917,178.901,246.839,174.063,246.839z"/>
			</g>
			<path style="fill:#FFFFFF;" d="M115.918,199.962l-0.866,25.611c-0.07,2.063,2.115,3.432,3.941,2.469l24.292-12.806
				c1.897-1,1.917-3.709,0.036-4.738l-23.426-12.806C118.138,196.733,115.985,197.961,115.918,199.962z"/>
		</g>
		
			<path style="fill:#FFFFFF;stroke:#54548E;stroke-width:1.9691;stroke-linecap:round;stroke-linejoin:round;stroke-miterlimit:10;" d="
			M150.333,90.084c0-0.014,0.002-0.028,0.002-0.043c0-9.972-8.084-18.056-18.056-18.056c-7.634,0-14.148,4.745-16.789,11.441
			c-1.848-0.995-3.961-1.562-6.208-1.562c-7.244,0-13.116,5.872-13.116,13.116c0,7.244,5.872,13.116,13.116,13.116h40.201
			c4.986,0,9.028-4.042,9.028-9.028C158.511,94.37,154.92,90.513,150.333,90.084z"/>
		<g>
			<g>
				<circle style="fill:#342F66;" cx="252.6" cy="80.457" r="39.91"/>
			</g>
			<g>
				
					<polyline style="fill:none;stroke:#FFFFFF;stroke-width:2.2792;stroke-linecap:round;stroke-linejoin:round;stroke-miterlimit:10;" points="
					263.65,70.594 276.376,81.421 262.918,92.247 				"/>
				
					<line style="fill:none;stroke:#FFFFFF;stroke-width:2.2792;stroke-linecap:round;stroke-linejoin:round;stroke-miterlimit:10;" x1="257.542" y1="70.594" x2="247.874" y2="92.247"/>
				
					<polyline style="fill:none;stroke:#FFFFFF;stroke-width:2.2792;stroke-linecap:round;stroke-linejoin:round;stroke-miterlimit:10;" points="
					241.55,70.594 228.824,81.421 242.282,92.247 				"/>
			</g>
		</g>
		<g>
			
				<circle style="fill:#FFFFFF;stroke:#342F66;stroke-width:1.5252;stroke-linecap:round;stroke-linejoin:round;stroke-miterlimit:10;" cx="372.343" cy="156.928" r="25.2"/>
			<g>
				<path style="fill:#342F66;" d="M388.855,160.118v-6.38c0-0.828-0.671-1.499-1.499-1.499h-2.199
					c-0.132-0.36-0.277-0.713-0.437-1.058l1.554-1.554c0.585-0.585,0.585-1.534,0-2.119l-4.511-4.511
					c-0.585-0.585-1.534-0.585-2.119,0l-1.554,1.554c-0.345-0.161-0.698-0.305-1.058-0.437v-2.199c0-0.828-0.671-1.498-1.499-1.498
					h-6.38c-0.828,0-1.499,0.671-1.499,1.498v2.199c-0.36,0.132-0.713,0.277-1.058,0.437l-1.554-1.554
					c-0.585-0.585-1.534-0.585-2.119,0l-4.511,4.511c-0.585,0.585-0.585,1.534,0,2.119l1.554,1.554
					c-0.161,0.345-0.305,0.698-0.437,1.058h-2.199c-0.828,0-1.499,0.671-1.499,1.499v6.38c0,0.828,0.671,1.499,1.499,1.499h2.199
					c0.132,0.36,0.276,0.713,0.437,1.058l-1.554,1.554c-0.585,0.585-0.585,1.534,0,2.119l4.511,4.511
					c0.585,0.585,1.534,0.585,2.119,0l1.554-1.554c0.345,0.161,0.698,0.305,1.058,0.437v2.199c0,0.828,0.671,1.499,1.499,1.499h6.38
					c0.828,0,1.499-0.671,1.499-1.499v-2.199c0.36-0.132,0.713-0.277,1.058-0.437l1.554,1.554c0.585,0.585,1.534,0.585,2.119,0
					l4.511-4.511c0.585-0.585,0.585-1.534,0-2.119l-1.554-1.554c0.161-0.345,0.305-0.698,0.437-1.058h2.199
					C388.184,161.616,388.855,160.945,388.855,160.118z M381.192,155.408c1.008,6.142-4.227,11.376-10.368,10.369
					c-3.719-0.61-6.719-3.61-7.329-7.329c-1.007-6.142,4.227-11.376,10.368-10.369C377.582,148.689,380.582,151.689,381.192,155.408
					z"/>
			</g>
			<g>
				<circle style="fill:#342F66;" cx="372.343" cy="156.928" r="4.113"/>
			</g>
		</g>
		<g>
			
				<path style="fill:#FFFFFF;stroke:#54548E;stroke-width:1.5406;stroke-linecap:round;stroke-linejoin:round;stroke-miterlimit:10;" d="
				M428.303,311.349H283.361c-2.623,0-4.749-2.126-4.749-4.749v-51.56c0-2.623,2.126-4.749,4.749-4.749h144.942
				c2.623,0,4.749,2.126,4.749,4.749v51.56C433.052,309.223,430.926,311.349,428.303,311.349z"/>
			<g>
				<g>
					<path style="fill:#D0D0F4;" d="M422.189,301.542h-74.814c-0.535,0-0.969-0.434-0.969-0.969v-0.052
						c0-0.535,0.434-0.969,0.969-0.969h74.814c0.535,0,0.969,0.434,0.969,0.969v0.052
						C423.158,301.108,422.724,301.542,422.189,301.542z"/>
				</g>
				<g>
					<path style="fill:#D0D0F4;" d="M422.189,295.004h-74.814c-0.535,0-0.969-0.434-0.969-0.969v-0.052
						c0-0.535,0.434-0.969,0.969-0.969h74.814c0.535,0,0.969,0.434,0.969,0.969v0.052
						C423.158,294.57,422.724,295.004,422.189,295.004z"/>
				</g>
				<g>
					<path style="fill:#D0D0F4;" d="M422.189,288.466h-74.814c-0.535,0-0.969-0.434-0.969-0.969v-0.052
						c0-0.535,0.434-0.969,0.969-0.969h74.814c0.535,0,0.969,0.434,0.969,0.969v0.052
						C423.158,288.032,422.724,288.466,422.189,288.466z"/>
				</g>
				<g>
					<path style="fill:#D0D0F4;" d="M422.189,281.928h-74.814c-0.535,0-0.969-0.434-0.969-0.969v-0.052
						c0-0.535,0.434-0.969,0.969-0.969h74.814c0.535,0,0.969,0.434,0.969,0.969v0.052
						C423.158,281.494,422.724,281.928,422.189,281.928z"/>
				</g>
				<g>
					<path style="fill:#D0D0F4;" d="M422.189,275.39h-74.814c-0.535,0-0.969-0.434-0.969-0.969v-0.052
						c0-0.535,0.434-0.969,0.969-0.969h74.814c0.535,0,0.969,0.434,0.969,0.969v0.052
						C423.158,274.956,422.724,275.39,422.189,275.39z"/>
				</g>
				<g>
					<path style="fill:#D0D0F4;" d="M422.189,268.851h-74.814c-0.535,0-0.969-0.434-0.969-0.969v-0.052
						c0-0.535,0.434-0.969,0.969-0.969h74.814c0.535,0,0.969,0.434,0.969,0.969v0.052
						C423.158,268.418,422.724,268.851,422.189,268.851z"/>
				</g>
				<g>
					<path style="fill:#D0D0F4;" d="M422.189,262.313h-74.814c-0.535,0-0.969-0.434-0.969-0.969v-0.052
						c0-0.535,0.434-0.969,0.969-0.969h74.814c0.535,0,0.969,0.434,0.969,0.969v0.052
						C423.158,261.879,422.724,262.313,422.189,262.313z"/>
				</g>
			</g>
			<g>
				
					<ellipse transform="matrix(0.1801 -0.9836 0.9836 0.1801 -21.8358 536.0895)" style="fill:#342F66;" cx="310.665" cy="281.143" rx="25.766" ry="25.766"/>
			</g>
			<g>
				<path style="fill:#FFFFFF;" d="M292.558,295.247c4.111,5.526,10.69,9.107,18.107,9.107c7.417,0,13.996-3.581,18.107-9.107
					c-1.192-4.007-4.496-7.38-8.954-9.355c1.234-1.791,1.961-3.958,1.961-6.298c0-6.138-4.976-11.114-11.114-11.114
					c-6.138,0-11.114,4.976-11.114,11.114c0,2.339,0.726,4.507,1.961,6.298C297.054,287.867,293.75,291.24,292.558,295.247z"/>
			</g>
		</g>
		<g>
			<g>
				
					<polygon style="fill:#FFFFFF;stroke:#342F66;stroke-width:1.41;stroke-linecap:round;stroke-linejoin:round;stroke-miterlimit:10;" points="
					172.085,407.097 120.389,407.097 120.389,350.887 164.635,350.887 172.085,357.433 				"/>
				
					<line style="fill:none;stroke:#54548E;stroke-width:1.7666;stroke-linecap:round;stroke-linejoin:round;stroke-miterlimit:10;" x1="126.258" y1="370.301" x2="158.089" y2="370.301"/>
				
					<line style="fill:none;stroke:#54548E;stroke-width:1.7666;stroke-linecap:round;stroke-linejoin:round;stroke-miterlimit:10;" x1="126.258" y1="366.012" x2="158.089" y2="366.012"/>
				
					<line style="fill:none;stroke:#54548E;stroke-width:1.7666;stroke-linecap:round;stroke-linejoin:round;stroke-miterlimit:10;" x1="126.258" y1="361.722" x2="158.089" y2="361.722"/>
				
					<line style="fill:none;stroke:#54548E;stroke-width:1.7666;stroke-linecap:round;stroke-linejoin:round;stroke-miterlimit:10;" x1="126.258" y1="357.433" x2="158.089" y2="357.433"/>
				
					<polygon style="fill:#FFFFFF;stroke:#342F66;stroke-width:1.41;stroke-linecap:round;stroke-linejoin:round;stroke-miterlimit:10;" points="
					164.635,350.887 164.635,357.207 172.085,357.433 				"/>
			</g>
			
				<path style="fill:#FFFFFF;stroke:#342F66;stroke-width:1.5252;stroke-linecap:round;stroke-linejoin:round;stroke-miterlimit:10;" d="
				M164.958,383.132l-5.361-6.757c-0.458-0.578-1.155-0.914-1.893-0.914h-45.547c-1.335,0-2.417,1.082-2.417,2.417v47.831
				c0,1.335,1.082,2.417,2.417,2.417h65.128c1.335,0,2.417-1.082,2.417-2.417v-39.245c0-1.335-1.082-2.417-2.417-2.417h-10.433
				C166.113,384.047,165.416,383.71,164.958,383.132z"/>
		</g>
		<g>
			<g>
				<path style="fill:#342F66;" d="M400.925,389.506h-65.158c-3.479,0-6.3,2.821-6.3,6.3v36.188c0,3.479,2.821,6.3,6.3,6.3h22.048
					l-4.724,8.611c-0.643,1.172,0.699,2.43,1.827,1.712l16.231-10.324h29.777c3.479,0,6.3-2.821,6.3-6.3v-36.188
					C407.225,392.326,404.404,389.506,400.925,389.506z"/>
			</g>
			<g>
				<path style="fill:#FFFFFF;" d="M352.201,414.336c0,2.803-2.273,5.076-5.076,5.076c-2.803,0-5.076-2.272-5.076-5.076
					c0-2.803,2.273-5.076,5.076-5.076C349.928,409.26,352.201,411.533,352.201,414.336z"/>
			</g>
			<g>
				<path style="fill:#FFFFFF;" d="M373.422,414.336c0,2.803-2.273,5.076-5.076,5.076c-2.803,0-5.076-2.272-5.076-5.076
					c0-2.803,2.273-5.076,5.076-5.076C371.149,409.26,373.422,411.533,373.422,414.336z"/>
			</g>
			<g>
				<path style="fill:#FFFFFF;" d="M394.643,414.336c0,2.803-2.273,5.076-5.076,5.076c-2.803,0-5.076-2.272-5.076-5.076
					c0-2.803,2.273-5.076,5.076-5.076C392.37,409.26,394.643,411.533,394.643,414.336z"/>
			</g>
		</g>
	</g>
</g>
</svg>
